<?xml version="1.0" standalone="no"?>
<!DOCTYPE svg PUBLIC "-//W3C//DTD SVG 20010904//EN"
 "http://www.w3.org/TR/2001/REC-SVG-20010904/DTD/svg10.dtd">
<svg version="1.0" xmlns="http://www.w3.org/2000/svg"
 width="512.000000pt" height="512.000000pt" viewBox="0 0 512.000000 512.000000"
 preserveAspectRatio="xMidYMid meet">

<g transform="translate(0.000000,512.000000) scale(0.100000,-0.100000)"
fill="#FF0000" stroke="none">
<path d="M2035 5103 c-85 -31 -147 -73 -231 -157 -159 -160 -313 -426 -415
-719 -13 -37 -31 -69 -39 -72 -8 -2 -67 -14 -130 -25 -246 -46 -462 -107 -595
-171 -148 -70 -201 -136 -193 -241 13 -174 231 -294 734 -403 21 -5 20 -8 -22
-92 -53 -106 -74 -205 -74 -343 0 -133 22 -237 70 -337 47 -96 117 -166 187
-186 l46 -13 33 -94 c48 -134 123 -282 206 -407 85 -127 256 -304 363 -374
379 -251 791 -251 1170 0 107 70 278 247 363 374 83 125 158 273 206 407 l33
94 46 13 c70 20 140 90 187 186 48 100 70 204 70 336 0 142 -21 239 -74 344
-42 84 -43 87 -22 92 403 87 612 177 700 303 61 86 44 201 -41 272 -103 86
-377 178 -713 240 -63 11 -122 23 -130 25 -8 3 -26 35 -39 72 -142 406 -376
745 -586 849 -74 37 -84 39 -169 39 -50 0 -113 -6 -141 -14 -63 -17 -179 -75
-226 -112 -20 -16 -42 -29 -49 -29 -7 0 -29 13 -49 29 -47 37 -143 86 -206
106 -81 25 -211 29 -270 8z m-331 -888 c171 -114 582 -176 1023 -155 337 17
554 67 699 161 69 45 117 51 157 19 54 -43 50 -128 -10 -176 -113 -93 -357
-171 -638 -205 -145 -18 -605 -18 -750 0 -276 33 -491 100 -622 193 -91 66
-85 181 11 206 42 11 57 6 130 -43z m-86 -970 c2 -2 -1 -20 -8 -39 -14 -44
-14 -239 1 -320 48 -268 289 -381 625 -296 97 25 201 74 273 128 l53 40 61
-46 c34 -26 103 -63 156 -84 329 -133 621 -59 712 180 31 83 46 299 26 378 -9
33 -14 60 -13 61 1 1 28 5 59 9 53 6 58 5 92 -25 20 -17 46 -31 60 -31 31 0
53 -23 81 -85 65 -147 52 -405 -27 -516 -20 -29 -24 -30 -73 -24 -41 5 -57 2
-83 -14 -28 -17 -36 -35 -73 -153 -258 -825 -941 -1154 -1500 -722 -192 148
-365 416 -454 704 -45 144 -51 155 -94 176 -28 13 -42 14 -69 6 -19 -6 -41 -8
-49 -5 -23 8 -72 123 -83 193 -15 89 -14 165 4 255 18 95 59 173 94 181 47 10
79 25 98 46 15 17 26 19 72 14 30 -4 57 -8 59 -11z"/>
<path d="M1031 1809 c-231 -77 -342 -119 -357 -134 -28 -28 -39 -65 -29 -102
4 -19 105 -127 293 -314 l287 -287 133 -43 132 -43 0 -72 c0 -129 -37 -96 533
-476 479 -319 513 -340 546 -334 23 4 197 113 534 338 414 276 502 339 514
365 7 18 13 65 13 105 l0 74 133 43 132 43 287 287 c188 187 289 295 293 314
10 37 -1 74 -29 102 -25 24 -671 245 -719 245 -14 0 -39 -11 -55 -25 -16 -13
-272 -378 -568 -809 -296 -432 -541 -786 -544 -786 -3 0 -247 354 -544 785
-296 432 -552 797 -568 810 -16 14 -42 25 -56 25 -15 0 -177 -50 -361 -111z"/>
<path d="M519 1137 c-171 -130 -320 -315 -406 -508 -88 -195 -139 -491 -98
-569 32 -63 -10 -60 937 -60 833 0 864 1 894 19 46 28 61 80 37 129 -15 31
-58 64 -252 194 -128 86 -246 168 -261 183 -15 14 -39 52 -54 83 -63 132 -55
124 -136 156 -71 29 -85 40 -282 233 -206 202 -206 203 -251 203 -39 0 -54 -8
-128 -63z"/>
<path d="M4222 997 c-137 -133 -221 -208 -247 -219 -22 -10 -57 -24 -78 -32
-32 -13 -42 -25 -63 -73 -39 -90 -57 -122 -85 -149 -15 -14 -132 -96 -260
-182 -194 -130 -237 -163 -252 -194 -24 -49 -9 -101 37 -129 30 -18 61 -19
894 -19 947 0 905 -3 937 60 41 78 -10 374 -98 569 -86 193 -235 378 -406 508
-74 55 -89 63 -128 63 -45 0 -45 -1 -251 -203z"/>
</g>
</svg>
