<?xml version="1.0" encoding="iso-8859-1"?>
<!-- Uploaded to: SVG Repo, www.svgrepo.com, Generator: SVG Repo Mixer Tools -->
<svg fill="#000000" height="800px" width="800px" version="1.1" id="Layer_1" xmlns="http://www.w3.org/2000/svg" xmlns:xlink="http://www.w3.org/1999/xlink" 
	 viewBox="0 0 512.001 512.001" xml:space="preserve">
<g>
	<g>
		<g>
			<path d="M287.353,195.207c0,5.88,4.767,10.647,10.647,10.647s10.647-4.767,10.647-10.647c0-48.433-39.403-87.836-87.836-87.836
				s-87.836,39.403-87.836,87.836c0,5.88,4.767,10.647,10.647,10.647c5.88,0,10.647-4.767,10.647-10.647
				c0-36.691,29.852-66.542,66.542-66.542S287.353,158.516,287.353,195.207z"/>
			<path d="M391.692,295.605c-11.217,0-21.183,4.646-28.214,12.211c-1.592-1.712-3.34-3.265-5.213-4.659V36.071
				C358.265,16.182,342.084,0,322.194,0H117.521c-19.89,0-36.072,16.182-36.072,36.071v375.022c0,19.89,16.182,36.072,36.072,36.072
				h77.552c1.636,2.698,3.429,5.306,5.388,7.799c7.973,10.149,12.364,22.845,12.364,35.75v10.64c0,5.88,4.767,10.647,10.647,10.647
				h167.155c5.88,0,10.647-4.767,10.647-10.647v-10.64c0-12.906,4.391-25.601,12.364-35.75
				c10.908-13.882,16.915-31.25,16.915-48.905v-70.53C430.553,313.142,413.484,295.605,391.692,295.605z M102.742,36.071
				c0-8.148,6.63-14.778,14.779-14.778h204.673c8.149,0,14.778,6.63,14.778,14.778v19.824H102.742V36.071z M117.521,425.872
				c-8.149,0-14.779-6.63-14.779-14.779V391.27h80.805v14.791c0,6.704,0.871,13.366,2.542,19.812H117.521z M183.547,195.207v174.769
				h-80.805V77.189h234.229v218.459c-0.566-0.023-1.134-0.044-1.708-0.044c-11.217,0-21.183,4.646-28.214,12.211
				c-7.031-7.563-16.997-12.211-28.214-12.211c-6.36,0-12.318,1.494-17.567,4.167V195.207c0-22.388-17.07-39.925-38.861-39.925
				S183.547,172.819,183.547,195.207z M409.259,406.06c0,12.906-4.392,25.601-12.364,35.749c-1.855,2.36-3.556,4.829-5.122,7.376
				h-79.322c-5.88,0-10.647,4.767-10.647,10.647s4.767,10.647,10.647,10.647h70.19c-1.744,6.577-2.66,13.38-2.661,20.229H234.119
				c-0.001-17.652-6.008-35.017-16.915-48.899c-7.973-10.147-12.364-22.843-12.364-35.749V195.207
				c0-10.622,7.552-18.632,17.567-18.632s17.567,8.01,17.567,18.632V335.53c0,5.88,4.767,10.647,10.647,10.647
				c5.88,0,10.647-4.767,10.647-10.647c0-10.622,7.552-18.632,17.567-18.632c10.015,0,17.567,8.01,17.567,18.632
				c0,5.88,4.767,10.647,10.647,10.647c5.88,0,10.647-4.767,10.647-10.647c0-10.622,7.552-18.632,17.567-18.632
				s17.567,8.01,17.567,18.632c0,5.88,4.767,10.647,10.647,10.647s10.647-4.767,10.647-10.647c0-10.622,7.552-18.632,17.567-18.632
				s17.567,8.01,17.567,18.632V406.06z"/>
			<path d="M272.525,449.184h-4.791c-5.88,0-10.647,4.767-10.647,10.647c0,5.88,4.767,10.647,10.647,10.647h4.791
				c5.88,0,10.647-4.767,10.647-10.647C283.172,453.951,278.406,449.184,272.525,449.184z"/>
		</g>
	</g>
</g>
</svg>